<svg width="24" height="22" viewBox="0 0 24 22" fill="none" xmlns="http://www.w3.org/2000/svg">
<path d="M21.143 8.667C20.41 7.275 19.229 5.617 17.526 3.914C14.549 0.936 12.048 0 10.741 0C10.327 0 10.033 0.0940001 9.881 0.246L8.52 1.606C6.621 1.37 5.1 1.712 4.226 2.589C3.35 3.464 3.062 4.748 3.434 6.112C3.926 7.918 5.739 10.161 9.339 11.487C9.377 11.81 9.496 12.125 9.744 12.372C10.332 12.96 11.279 12.958 11.865 12.372C12.451 11.786 12.453 10.839 11.867 10.253C11.279 9.666 10.33 9.665 9.744 10.252L9.574 10.508C7.543 9.743 6.179 8.68 5.342 7.608L9.221 3.733C9.717 6.463 15.653 12.409 18.399 12.911L11.284 20.018C11.05 20.171 8.486 19.702 5.128 16.343C1.735 12.95 1.953 11.072 2.101 10.845L3.96 8.989C3.521 8.63 3.035 7.886 2.819 7.3L0.685 9.431C0.24 9.877 0 10.495 0 11.251C0 12.885 1.121 15.166 3.713 17.757C6.477 20.521 9.293 22 11.145 22C11.793 22 12.325 21.805 12.692 21.438L20.778 13.36C21.688 14.234 20 16.898 20 18.008C20 19.112 20.896 20.007 22 20.007C23.105 20.007 24 19.111 24 18.007C24 14.823 22.575 11.197 21.143 8.667V8.667ZM4.934 3.296C5.461 2.766 6.405 2.505 7.59 2.535L4.381 5.741C4.145 4.763 4.332 3.896 4.934 3.296V3.296ZM14.226 7.375L14.196 7.346C12.904 6.054 10.393 2.99 11.1 2.283C11.815 1.568 14.588 3.804 16.162 5.379C17.024 6.241 18.25 7.626 19.099 8.837C17.382 7.763 15.608 7.368 14.226 7.375V7.375Z" fill="#FF0000"/>
</svg>
